<mxfile host="app.diagrams.net" agent="Mozilla/5.0 (Macintosh; Intel Mac OS X 10_15_7) AppleWebKit/537.36 (KHTML, like Gecko) Chrome/140.0.0.0 Safari/537.36" border="50" scale="3" compressed="false" locked="false" version="28.2.5">
  <diagram id="dEmclc_T6QgUYrJKaPmK" name="Seite-2">
    <mxGraphModel dx="61427" dy="585" grid="1" gridSize="10" guides="1" tooltips="1" connect="1" arrows="1" fold="1" page="1" pageScale="1" pageWidth="827" pageHeight="1169" math="1" shadow="0">
      <root>
        <mxCell id="0" />
        <mxCell id="1" parent="0" />
        <mxCell id="Fx0_NZkzbO3krXuKe3ac-3" value="" style="edgeStyle=orthogonalEdgeStyle;rounded=0;orthogonalLoop=1;jettySize=auto;html=1;noEdgeStyle=1;orthogonal=1;entryX=0.5;entryY=0;entryDx=0;entryDy=0;" parent="1" source="Fx0_NZkzbO3krXuKe3ac-1" target="Fx0_NZkzbO3krXuKe3ac-2" edge="1">
          <mxGeometry relative="1" as="geometry">
            <Array as="points">
              <mxPoint x="725.9999999999991" y="612" />
              <mxPoint x="773.4999999999991" y="688" />
            </Array>
          </mxGeometry>
        </mxCell>
        <mxCell id="Fx0_NZkzbO3krXuKe3ac-1" value="&lt;b&gt;Optimal Consumption rate \(n\)&lt;/b&gt;" style="rounded=1;whiteSpace=wrap;html=1;fillColor=#d0cee2;strokeColor=#56517e;" parent="1" vertex="1">
          <mxGeometry x="665.9999999999991" y="540" width="120" height="60" as="geometry" />
        </mxCell>
        <mxCell id="Fx0_NZkzbO3krXuKe3ac-36" value="" style="edgeStyle=orthogonalEdgeStyle;rounded=0;orthogonalLoop=1;jettySize=auto;html=1;noEdgeStyle=1;orthogonal=1;" parent="1" source="Fx0_NZkzbO3krXuKe3ac-2" target="Fx0_NZkzbO3krXuKe3ac-35" edge="1">
          <mxGeometry relative="1" as="geometry">
            <Array as="points">
              <mxPoint x="773.4999999999991" y="792" />
              <mxPoint x="725.9999999999991" y="868" />
            </Array>
          </mxGeometry>
        </mxCell>
        <mxCell id="Fx0_NZkzbO3krXuKe3ac-38" value="" style="edgeStyle=orthogonalEdgeStyle;rounded=0;orthogonalLoop=1;jettySize=auto;html=1;noEdgeStyle=1;orthogonal=1;" parent="1" source="Fx0_NZkzbO3krXuKe3ac-2" target="Fx0_NZkzbO3krXuKe3ac-37" edge="1">
          <mxGeometry relative="1" as="geometry">
            <Array as="points">
              <mxPoint x="828.4999999999991" y="792" />
              <mxPoint x="875.9999999999991" y="868" />
            </Array>
          </mxGeometry>
        </mxCell>
        <mxCell id="Fx0_NZkzbO3krXuKe3ac-40" value="Solve FBP" style="edgeLabel;html=1;align=center;verticalAlign=middle;resizable=0;points=[];" parent="Fx0_NZkzbO3krXuKe3ac-38" vertex="1" connectable="0">
          <mxGeometry x="25.411764705882245" y="5.911764705882467" relative="1" as="geometry">
            <mxPoint as="offset" />
          </mxGeometry>
        </mxCell>
        <mxCell id="Fx0_NZkzbO3krXuKe3ac-50" value="solve" style="edgeLabel;html=1;align=center;verticalAlign=middle;resizable=0;points=[];" parent="Fx0_NZkzbO3krXuKe3ac-38" vertex="1" connectable="0">
          <mxGeometry x="0.0709" y="2" relative="1" as="geometry">
            <mxPoint as="offset" />
          </mxGeometry>
        </mxCell>
        <mxCell id="Fx0_NZkzbO3krXuKe3ac-2" value="&lt;b&gt;&lt;i&gt;Free-Boundary-&lt;/i&gt;&lt;/b&gt;&lt;div&gt;&lt;b&gt;&lt;i&gt;Problem (Sec. 5.2)&lt;/i&gt;&lt;/b&gt;&lt;/div&gt;" style="shape=hexagon;perimeter=hexagonPerimeter2;whiteSpace=wrap;html=1;fixedSize=1;fillColor=#d0cee2;strokeColor=#56517e;rounded=1;" parent="1" vertex="1">
          <mxGeometry x="740.9999999999991" y="700" width="120" height="80" as="geometry" />
        </mxCell>
        <mxCell id="Fx0_NZkzbO3krXuKe3ac-4" value="&lt;b&gt;Solution Ansatz&lt;/b&gt;&lt;div&gt;(Sec. 4.2)&lt;/div&gt;" style="ellipse;whiteSpace=wrap;html=1;fillColor=#f8cecc;gradientColor=#ea6b66;strokeColor=#b85450;" parent="1" vertex="1">
          <mxGeometry x="745.9999999999991" y="360" width="120" height="80" as="geometry" />
        </mxCell>
        <mxCell id="Fx0_NZkzbO3krXuKe3ac-6" value="" style="endArrow=classic;html=1;rounded=0;exitX=0.533;exitY=1;exitDx=0;exitDy=0;entryX=0.5;entryY=0;entryDx=0;entryDy=0;noEdgeStyle=1;orthogonal=1;exitPerimeter=0;" parent="1" source="Fx0_NZkzbO3krXuKe3ac-4" target="Fx0_NZkzbO3krXuKe3ac-1" edge="1">
          <mxGeometry width="50" height="50" relative="1" as="geometry">
            <mxPoint x="320" y="230" as="sourcePoint" />
            <mxPoint x="370" y="180" as="targetPoint" />
            <Array as="points">
              <mxPoint x="778.4999999999991" y="452" />
              <mxPoint x="725.9999999999991" y="528" />
            </Array>
          </mxGeometry>
        </mxCell>
        <mxCell id="Fx0_NZkzbO3krXuKe3ac-8" value="Problem with&lt;div&gt;Frictions&lt;/div&gt;" style="ellipse;whiteSpace=wrap;html=1;aspect=fixed;fillColor=#fff2cc;strokeColor=#d6b656;gradientColor=#ffd966;" parent="1" vertex="1">
          <mxGeometry x="660.9999999999991" width="80" height="80" as="geometry" />
        </mxCell>
        <mxCell id="Fx0_NZkzbO3krXuKe3ac-9" value="Problem without&lt;div&gt;Frictions&lt;/div&gt;" style="ellipse;whiteSpace=wrap;html=1;aspect=fixed;fillColor=#fff2cc;strokeColor=#d6b656;gradientColor=#ffd966;" parent="1" vertex="1">
          <mxGeometry x="835.9999999999991" y="180" width="80" height="80" as="geometry" />
        </mxCell>
        <mxCell id="Fx0_NZkzbO3krXuKe3ac-11" value="" style="endArrow=classic;html=1;rounded=0;exitX=0.5;exitY=1;exitDx=0;exitDy=0;entryX=0.5;entryY=0;entryDx=0;entryDy=0;noEdgeStyle=1;orthogonal=1;" parent="1" source="Fx0_NZkzbO3krXuKe3ac-9" target="Fx0_NZkzbO3krXuKe3ac-4" edge="1">
          <mxGeometry width="50" height="50" relative="1" as="geometry">
            <mxPoint x="320" y="150" as="sourcePoint" />
            <mxPoint x="370" y="100" as="targetPoint" />
            <Array as="points">
              <mxPoint x="875.9999999999991" y="272" />
              <mxPoint x="833.4999999999991" y="348" />
            </Array>
          </mxGeometry>
        </mxCell>
        <mxCell id="Fx0_NZkzbO3krXuKe3ac-12" value="Motivates" style="edgeLabel;html=1;align=center;verticalAlign=middle;resizable=0;points=[];" parent="Fx0_NZkzbO3krXuKe3ac-11" vertex="1" connectable="0">
          <mxGeometry x="134.91176470588204" y="5.911764705882458" relative="1" as="geometry">
            <mxPoint x="-29" y="-13" as="offset" />
          </mxGeometry>
        </mxCell>
        <mxCell id="Fx0_NZkzbO3krXuKe3ac-47" value="Motivates" style="edgeLabel;html=1;align=center;verticalAlign=middle;resizable=0;points=[];" parent="Fx0_NZkzbO3krXuKe3ac-11" vertex="1" connectable="0">
          <mxGeometry x="-0.2635" relative="1" as="geometry">
            <mxPoint as="offset" />
          </mxGeometry>
        </mxCell>
        <mxCell id="Fx0_NZkzbO3krXuKe3ac-13" value="" style="endArrow=classic;html=1;rounded=0;exitX=0.5;exitY=1;exitDx=0;exitDy=0;entryX=0.5;entryY=0;entryDx=0;entryDy=0;noEdgeStyle=1;orthogonal=1;" parent="1" source="Fx0_NZkzbO3krXuKe3ac-8" target="Fx0_NZkzbO3krXuKe3ac-16" edge="1">
          <mxGeometry width="50" height="50" relative="1" as="geometry">
            <mxPoint x="320" y="150" as="sourcePoint" />
            <mxPoint x="440" y="-20" as="targetPoint" />
            <Array as="points">
              <mxPoint x="718.4999999999991" y="92" />
              <mxPoint x="718.4999999999991" y="168" />
            </Array>
          </mxGeometry>
        </mxCell>
        <mxCell id="Fx0_NZkzbO3krXuKe3ac-16" value="&lt;b&gt;Shadow Fraction of Wealth&lt;/b&gt;" style="rounded=1;whiteSpace=wrap;html=1;fillColor=#d0cee2;strokeColor=#56517e;" parent="1" vertex="1">
          <mxGeometry x="685.9999999999991" y="195" width="120" height="50" as="geometry" />
        </mxCell>
        <mxCell id="Fx0_NZkzbO3krXuKe3ac-20" value="&lt;b&gt;Bid-Ask-Spread&lt;/b&gt;" style="rounded=1;whiteSpace=wrap;html=1;fillColor=#d0cee2;strokeColor=#56517e;" parent="1" vertex="1">
          <mxGeometry x="770.9999999999991" y="10" width="120" height="60" as="geometry" />
        </mxCell>
        <mxCell id="Fx0_NZkzbO3krXuKe3ac-21" value="" style="endArrow=classic;html=1;rounded=0;exitX=0.5;exitY=1;exitDx=0;exitDy=0;entryX=0.5;entryY=0;entryDx=0;entryDy=0;noEdgeStyle=1;orthogonal=1;" parent="1" source="Fx0_NZkzbO3krXuKe3ac-20" target="Fx0_NZkzbO3krXuKe3ac-16" edge="1">
          <mxGeometry width="50" height="50" relative="1" as="geometry">
            <mxPoint x="380" y="150" as="sourcePoint" />
            <mxPoint x="430" y="100" as="targetPoint" />
            <Array as="points">
              <mxPoint x="830.9999999999991" y="92" />
              <mxPoint x="773.4999999999991" y="168" />
            </Array>
          </mxGeometry>
        </mxCell>
        <mxCell id="Fx0_NZkzbO3krXuKe3ac-22" value="Motivates" style="edgeLabel;html=1;align=center;verticalAlign=middle;resizable=0;points=[];" parent="Fx0_NZkzbO3krXuKe3ac-21" vertex="1" connectable="0">
          <mxGeometry x="241.91176470588184" y="5.911764705882458" relative="1" as="geometry">
            <mxPoint as="offset" />
          </mxGeometry>
        </mxCell>
        <mxCell id="Fx0_NZkzbO3krXuKe3ac-48" value="Motivates" style="edgeLabel;html=1;align=center;verticalAlign=middle;resizable=0;points=[];" parent="Fx0_NZkzbO3krXuKe3ac-21" vertex="1" connectable="0">
          <mxGeometry x="0.0377" y="-1" relative="1" as="geometry">
            <mxPoint as="offset" />
          </mxGeometry>
        </mxCell>
        <mxCell id="Fx0_NZkzbO3krXuKe3ac-23" value="" style="endArrow=classic;html=1;rounded=0;exitX=0.5;exitY=1;exitDx=0;exitDy=0;entryX=0.5;entryY=0;entryDx=0;entryDy=0;noEdgeStyle=1;orthogonal=1;" parent="1" source="Fx0_NZkzbO3krXuKe3ac-16" target="Fx0_NZkzbO3krXuKe3ac-4" edge="1">
          <mxGeometry width="50" height="50" relative="1" as="geometry">
            <mxPoint x="380" y="150" as="sourcePoint" />
            <mxPoint x="430" y="100" as="targetPoint" />
            <Array as="points">
              <mxPoint x="745.9999999999991" y="272" />
              <mxPoint x="778.4999999999991" y="348" />
            </Array>
          </mxGeometry>
        </mxCell>
        <mxCell id="Fx0_NZkzbO3krXuKe3ac-30" value="" style="edgeStyle=orthogonalEdgeStyle;rounded=0;orthogonalLoop=1;jettySize=auto;html=1;noEdgeStyle=1;orthogonal=1;entryX=0.5;entryY=0;entryDx=0;entryDy=0;" parent="1" source="Fx0_NZkzbO3krXuKe3ac-26" target="Fx0_NZkzbO3krXuKe3ac-29" edge="1">
          <mxGeometry relative="1" as="geometry">
            <Array as="points">
              <mxPoint x="710.9999999999991" y="1132" />
              <mxPoint x="758.4999999999991" y="1208" />
            </Array>
          </mxGeometry>
        </mxCell>
        <mxCell id="Fx0_NZkzbO3krXuKe3ac-26" value="&lt;b&gt;Admissibility&lt;/b&gt;&lt;div&gt;&lt;b&gt;and&amp;nbsp;&lt;/b&gt;&lt;/div&gt;&lt;div&gt;&lt;b&gt;Attainability&lt;/b&gt;&lt;/div&gt;" style="rounded=1;whiteSpace=wrap;html=1;fillColor=#d0cee2;strokeColor=#56517e;gradientColor=none;" parent="1" vertex="1">
          <mxGeometry x="650.9999999999991" y="1050" width="120" height="60" as="geometry" />
        </mxCell>
        <mxCell id="Fx0_NZkzbO3krXuKe3ac-28" value="" style="endArrow=classic;html=1;rounded=0;entryX=0.5;entryY=0;entryDx=0;entryDy=0;noEdgeStyle=1;orthogonal=1;" parent="1" source="Fx0_NZkzbO3krXuKe3ac-8" target="Fx0_NZkzbO3krXuKe3ac-26" edge="1">
          <mxGeometry width="50" height="50" relative="1" as="geometry">
            <mxPoint x="490" y="-100" as="sourcePoint" />
            <mxPoint x="540" y="-150" as="targetPoint" />
            <Array as="points">
              <mxPoint x="683.4999999999991" y="92" />
              <mxPoint x="635.9999999999991" y="130" />
              <mxPoint x="635.9999999999991" y="310" />
              <mxPoint x="635.9999999999991" y="310" />
              <mxPoint x="635.9999999999991" y="490" />
              <mxPoint x="635.9999999999991" y="490" />
              <mxPoint x="635.9999999999991" y="650" />
              <mxPoint x="635.9999999999991" y="650" />
              <mxPoint x="635.9999999999991" y="830" />
              <mxPoint x="635.9999999999991" y="830" />
              <mxPoint x="635.9999999999991" y="990" />
              <mxPoint x="710.9999999999991" y="1028" />
            </Array>
          </mxGeometry>
        </mxCell>
        <mxCell id="Fx0_NZkzbO3krXuKe3ac-29" value="&lt;b&gt;Problem Formulation&lt;/b&gt;" style="rounded=1;whiteSpace=wrap;html=1;fillColor=#f8cecc;strokeColor=#b85450;gradientColor=#ea6b66;align=center;verticalAlign=middle;fontFamily=Helvetica;fontSize=12;fontColor=default;" parent="1" vertex="1">
          <mxGeometry x="725.9999999999991" y="1220" width="120" height="60" as="geometry" />
        </mxCell>
        <mxCell id="Fx0_NZkzbO3krXuKe3ac-31" value="&lt;b&gt;Martingale Optimality Principle&lt;/b&gt;" style="rounded=1;whiteSpace=wrap;html=1;fillColor=#d0cee2;strokeColor=#56517e;" parent="1" vertex="1">
          <mxGeometry x="815.9999999999991" y="540" width="120" height="60" as="geometry" />
        </mxCell>
        <mxCell id="Fx0_NZkzbO3krXuKe3ac-32" value="" style="endArrow=classic;html=1;rounded=0;entryX=0.5;entryY=0;entryDx=0;entryDy=0;noEdgeStyle=1;orthogonal=1;exitX=0.541;exitY=0.997;exitDx=0;exitDy=0;exitPerimeter=0;" parent="1" source="Fx0_NZkzbO3krXuKe3ac-4" target="Fx0_NZkzbO3krXuKe3ac-31" edge="1">
          <mxGeometry width="50" height="50" relative="1" as="geometry">
            <mxPoint x="610" y="130" as="sourcePoint" />
            <mxPoint x="660" y="80" as="targetPoint" />
            <Array as="points">
              <mxPoint x="833.4999999999991" y="452" />
              <mxPoint x="875.9999999999991" y="528" />
            </Array>
          </mxGeometry>
        </mxCell>
        <mxCell id="Fx0_NZkzbO3krXuKe3ac-33" value="Necessary Condition" style="edgeLabel;html=1;align=center;verticalAlign=middle;resizable=0;points=[];" parent="Fx0_NZkzbO3krXuKe3ac-32" vertex="1" connectable="0">
          <mxGeometry x="376.41176470588164" y="5.911764705882458" relative="1" as="geometry">
            <mxPoint as="offset" />
          </mxGeometry>
        </mxCell>
        <mxCell id="Fx0_NZkzbO3krXuKe3ac-34" value="" style="edgeStyle=orthogonalEdgeStyle;rounded=0;orthogonalLoop=1;jettySize=auto;html=1;entryX=0.5;entryY=0;entryDx=0;entryDy=0;noEdgeStyle=1;orthogonal=1;" parent="1" source="Fx0_NZkzbO3krXuKe3ac-31" target="Fx0_NZkzbO3krXuKe3ac-2" edge="1">
          <mxGeometry relative="1" as="geometry">
            <mxPoint x="410" y="290" as="sourcePoint" />
            <mxPoint x="410" y="360" as="targetPoint" />
            <Array as="points">
              <mxPoint x="875.9999999999991" y="612" />
              <mxPoint x="828.4999999999991" y="688" />
            </Array>
          </mxGeometry>
        </mxCell>
        <mxCell id="Fx0_NZkzbO3krXuKe3ac-35" value="Initial Condition determined via \( \xi \)" style="whiteSpace=wrap;html=1;fillColor=#d0cee2;strokeColor=#56517e;rounded=1;" parent="1" vertex="1">
          <mxGeometry x="665.9999999999991" y="880" width="120" height="60" as="geometry" />
        </mxCell>
        <mxCell id="Fx0_NZkzbO3krXuKe3ac-42" value="" style="edgeStyle=orthogonalEdgeStyle;rounded=0;orthogonalLoop=1;jettySize=auto;html=1;noEdgeStyle=1;orthogonal=1;" parent="1" source="Fx0_NZkzbO3krXuKe3ac-37" target="Fx0_NZkzbO3krXuKe3ac-41" edge="1">
          <mxGeometry relative="1" as="geometry">
            <Array as="points">
              <mxPoint x="875.9999999999991" y="952" />
              <mxPoint x="860.9999999999991" y="1028" />
            </Array>
          </mxGeometry>
        </mxCell>
        <mxCell id="Fx0_NZkzbO3krXuKe3ac-43" value="Case Distinction&lt;div&gt;\( \vartheta &amp;gt;1\) and \( \vartheta &amp;lt;1\)&lt;/div&gt;" style="edgeLabel;html=1;align=center;verticalAlign=middle;resizable=0;points=[];" parent="Fx0_NZkzbO3krXuKe3ac-42" vertex="1" connectable="0">
          <mxGeometry x="531.4117647058815" y="12.411764705882563" relative="1" as="geometry">
            <mxPoint as="offset" />
          </mxGeometry>
        </mxCell>
        <mxCell id="Fx0_NZkzbO3krXuKe3ac-37" value="&lt;b&gt;Candidate Value Function&lt;/b&gt;" style="rounded=1;whiteSpace=wrap;html=1;fillColor=#d0cee2;strokeColor=#56517e;" parent="1" vertex="1">
          <mxGeometry x="815.9999999999991" y="880" width="120" height="60" as="geometry" />
        </mxCell>
        <mxCell id="Fx0_NZkzbO3krXuKe3ac-41" value="&lt;b&gt;Verification Argument&lt;/b&gt;" style="shape=hexagon;perimeter=hexagonPerimeter2;whiteSpace=wrap;html=1;fixedSize=1;fillColor=#d0cee2;strokeColor=#56517e;rounded=1;" parent="1" vertex="1">
          <mxGeometry x="800.9999999999991" y="1040" width="120" height="80" as="geometry" />
        </mxCell>
        <mxCell id="Fx0_NZkzbO3krXuKe3ac-45" value="" style="endArrow=classic;html=1;rounded=0;exitX=0.5;exitY=1;exitDx=0;exitDy=0;entryX=0.5;entryY=0;entryDx=0;entryDy=0;noEdgeStyle=1;orthogonal=1;" parent="1" source="Fx0_NZkzbO3krXuKe3ac-41" target="Fx0_NZkzbO3krXuKe3ac-29" edge="1">
          <mxGeometry width="50" height="50" relative="1" as="geometry">
            <mxPoint x="1210" y="520" as="sourcePoint" />
            <mxPoint x="740" y="690" as="targetPoint" />
            <Array as="points">
              <mxPoint x="860.9999999999991" y="1132" />
              <mxPoint x="813.4999999999991" y="1208" />
            </Array>
          </mxGeometry>
        </mxCell>
        <mxCell id="Fx0_NZkzbO3krXuKe3ac-46" value="solves" style="edgeLabel;html=1;align=center;verticalAlign=middle;resizable=0;points=[];" parent="Fx0_NZkzbO3krXuKe3ac-45" vertex="1" connectable="0">
          <mxGeometry x="1010.9117647058816" y="5.911764705882467" relative="1" as="geometry">
            <mxPoint as="offset" />
          </mxGeometry>
        </mxCell>
        <mxCell id="Fx0_NZkzbO3krXuKe3ac-49" value="solves" style="edgeLabel;html=1;align=center;verticalAlign=middle;resizable=0;points=[];" parent="Fx0_NZkzbO3krXuKe3ac-45" vertex="1" connectable="0">
          <mxGeometry x="-0.1909" y="-3" relative="1" as="geometry">
            <mxPoint as="offset" />
          </mxGeometry>
        </mxCell>
        <mxCell id="UztDcWftkjGKVwiWIh5H-1" value="&lt;b&gt;Proposition 5.3&lt;/b&gt;" style="shape=hexagon;perimeter=hexagonPerimeter2;whiteSpace=wrap;html=1;fixedSize=1;fillColor=#f8cecc;gradientColor=#ea6b66;strokeColor=#b85450;" vertex="1" parent="1">
          <mxGeometry x="-59250" y="950" width="120" height="80" as="geometry" />
        </mxCell>
        <mxCell id="UztDcWftkjGKVwiWIh5H-2" value="&lt;b&gt;Free&lt;/b&gt;&lt;div&gt;&lt;b&gt;Boundary&lt;/b&gt;&lt;/div&gt;&lt;div&gt;&lt;b&gt;Problem&lt;/b&gt;&lt;/div&gt;" style="ellipse;whiteSpace=wrap;html=1;strokeColor=#b85450;align=center;verticalAlign=middle;fontFamily=Helvetica;fontSize=12;fontColor=default;fillColor=#f8cecc;gradientColor=#ea6b66;" vertex="1" parent="1">
          <mxGeometry x="-59230" y="820" width="80" height="80" as="geometry" />
        </mxCell>
        <mxCell id="UztDcWftkjGKVwiWIh5H-3" value="" style="endArrow=classic;startArrow=classic;html=1;rounded=0;fontFamily=Helvetica;fontSize=12;fontColor=default;entryX=0.5;entryY=1;entryDx=0;entryDy=0;exitX=0.5;exitY=0;exitDx=0;exitDy=0;" edge="1" parent="1" source="UztDcWftkjGKVwiWIh5H-1" target="UztDcWftkjGKVwiWIh5H-2">
          <mxGeometry width="50" height="50" relative="1" as="geometry">
            <mxPoint x="-59220" y="1010" as="sourcePoint" />
            <mxPoint x="-59170" y="960" as="targetPoint" />
          </mxGeometry>
        </mxCell>
        <mxCell id="UztDcWftkjGKVwiWIh5H-4" value="&lt;b&gt;Proposition A.1&lt;/b&gt;" style="shape=hexagon;perimeter=hexagonPerimeter2;whiteSpace=wrap;html=1;fixedSize=1;strokeColor=#b85450;align=center;verticalAlign=middle;fontFamily=Helvetica;fontSize=12;fontColor=default;fillColor=#f8cecc;gradientColor=#ea6b66;" vertex="1" parent="1">
          <mxGeometry x="-59460" y="870" width="120" height="80" as="geometry" />
        </mxCell>
        <mxCell id="UztDcWftkjGKVwiWIh5H-5" value="" style="endArrow=classic;html=1;rounded=0;fontFamily=Helvetica;fontSize=12;fontColor=default;exitX=1;exitY=0.5;exitDx=0;exitDy=0;entryX=0;entryY=0.5;entryDx=0;entryDy=0;" edge="1" parent="1" source="UztDcWftkjGKVwiWIh5H-4" target="UztDcWftkjGKVwiWIh5H-1">
          <mxGeometry width="50" height="50" relative="1" as="geometry">
            <mxPoint x="-59220" y="1010" as="sourcePoint" />
            <mxPoint x="-59170" y="960" as="targetPoint" />
          </mxGeometry>
        </mxCell>
      </root>
    </mxGraphModel>
  </diagram>
</mxfile>
